<?xml version="1.0" encoding="UTF-8" standalone="no"?>
<!-- Created with Inkscape (http://www.inkscape.org/) -->
<svg
   xmlns:dc="http://purl.org/dc/elements/1.1/"
   xmlns:cc="http://creativecommons.org/ns#"
   xmlns:rdf="http://www.w3.org/1999/02/22-rdf-syntax-ns#"
   xmlns:svg="http://www.w3.org/2000/svg"
   xmlns="http://www.w3.org/2000/svg"
   xmlns:xlink="http://www.w3.org/1999/xlink"
   xmlns:sodipodi="http://sodipodi.sourceforge.net/DTD/sodipodi-0.dtd"
   xmlns:inkscape="http://www.inkscape.org/namespaces/inkscape"
   width="256"
   height="256"
   id="svg2"
   sodipodi:version="0.32"
   inkscape:version="0.46"
   version="1.0"
   sodipodi:docname="pickit.svg"
   inkscape:output_extension="org.inkscape.output.svg.inkscape">
  <defs
     id="defs4">
    <linearGradient
       id="linearGradient3401">
      <stop
         style="stop-color:#969696;stop-opacity:1;"
         offset="0"
         id="stop3403" />
      <stop
         style="stop-color:#000000;stop-opacity:1;"
         offset="1"
         id="stop3405" />
    </linearGradient>
    <linearGradient
       id="linearGradient3393">
      <stop
         style="stop-color:#000000;stop-opacity:1;"
         offset="0"
         id="stop3395" />
      <stop
         style="stop-color:#343434;stop-opacity:1;"
         offset="1"
         id="stop3397" />
    </linearGradient>
    <inkscape:perspective
       sodipodi:type="inkscape:persp3d"
       inkscape:vp_x="0 : 526.18109 : 1"
       inkscape:vp_y="0 : 1000 : 0"
       inkscape:vp_z="744.09448 : 526.18109 : 1"
       inkscape:persp3d-origin="372.04724 : 350.78739 : 1"
       id="perspective10" />
    <linearGradient
       inkscape:collect="always"
       xlink:href="#linearGradient3393"
       id="linearGradient3399"
       x1="96"
       y1="80"
       x2="160"
       y2="128"
       gradientUnits="userSpaceOnUse" />
    <linearGradient
       inkscape:collect="always"
       xlink:href="#linearGradient3401"
       id="linearGradient3407"
       x1="96"
       y1="64"
       x2="144"
       y2="128"
       gradientUnits="userSpaceOnUse" />
  </defs>
  <sodipodi:namedview
     id="base"
     pagecolor="#ffffff"
     bordercolor="#666666"
     borderopacity="1.0"
     gridtolerance="10000"
     guidetolerance="10"
     objecttolerance="10"
     inkscape:pageopacity="0.0"
     inkscape:pageshadow="2"
     inkscape:zoom="3.959798"
     inkscape:cx="127.4678"
     inkscape:cy="132.36914"
     inkscape:document-units="px"
     inkscape:current-layer="layer1"
     showgrid="true"
     inkscape:window-width="1280"
     inkscape:window-height="964"
     inkscape:window-x="-5"
     inkscape:window-y="-3">
    <inkscape:grid
       type="xygrid"
       id="grid2383"
       visible="true"
       enabled="true"
       spacingx="2px"
       spacingy="2px"
       empspacing="8" />
  </sodipodi:namedview>
  <metadata
     id="metadata7">
    <rdf:RDF>
      <cc:Work
         rdf:about="">
        <dc:format>image/svg+xml</dc:format>
        <dc:type
           rdf:resource="http://purl.org/dc/dcmitype/StillImage" />
      </cc:Work>
    </rdf:RDF>
  </metadata>
  <g
     inkscape:label="Layer 1"
     inkscape:groupmode="layer"
     id="layer1">
    <path
       style="fill:#161616;fill-rule:evenodd;stroke:#161616;stroke-width:1px;stroke-linecap:butt;stroke-linejoin:miter;stroke-opacity:1;fill-opacity:1"
       d="M 100,190 L 100,196 L 140,196 L 140,190 L 100,190 z"
       id="path2407" />
    <path
       style="fill:url(#linearGradient3399);fill-rule:evenodd;stroke:url(#linearGradient3407);stroke-width:1px;stroke-linecap:butt;stroke-linejoin:miter;stroke-opacity:1;fill-opacity:1"
       d="M 86,32 L 154,32 C 154,32 160,32 160,38 C 160,44 160,176 160,176 C 160,176 160,192 128,192 C 96,192 112,192 112,192 C 112,192 80,192 80,176 C 80,160 80,38 80,38 C 80,38 80.5,32.142856 86,32 z"
       id="path2385" />
    <path
       style="fill:#ffffff;fill-rule:evenodd;stroke:#ffffff;stroke-width:1px;stroke-linecap:butt;stroke-linejoin:miter;stroke-opacity:1;fill-opacity:1"
       d="M 136,186 L 140,178 L 132,178 L 136,186 z"
       id="path2409" />
    <path
       style="fill:none;fill-rule:evenodd;stroke:#ffffff;stroke-width:4;stroke-linecap:butt;stroke-linejoin:miter;stroke-opacity:1;stroke-miterlimit:4;stroke-dasharray:none"
       d="M 96,148 L 128,132"
       id="path2429" />
    <path
       style="fill:none;fill-rule:evenodd;stroke:#ffffff;stroke-width:4;stroke-linecap:butt;stroke-linejoin:miter;stroke-opacity:1;stroke-miterlimit:4;stroke-dasharray:none"
       d="M 112,156 L 144,140"
       id="path3201" />
    <path
       style="fill:none;fill-rule:evenodd;stroke:#ffffff;stroke-width:4;stroke-linecap:butt;stroke-linejoin:miter;stroke-opacity:1;stroke-miterlimit:4;stroke-dasharray:none"
       d="M 128,164 L 156,150"
       id="path3203" />
    <path
       sodipodi:type="arc"
       style="fill:#d40000;fill-opacity:1;stroke:none;stroke-width:7.08661413000000007;stroke-miterlimit:4;stroke-dasharray:none;stroke-opacity:1"
       id="path2421"
       sodipodi:cx="96"
       sodipodi:cy="128"
       sodipodi:rx="4"
       sodipodi:ry="4"
       d="M 100,128 A 4,4 0 1 1 92,128 A 4,4 0 1 1 100,128 z"
       transform="translate(-4,-4)" />
    <path
       sodipodi:type="arc"
       style="fill:#00ff00;fill-opacity:1;stroke:none;stroke-width:7.08661413000000007;stroke-miterlimit:4;stroke-dasharray:none;stroke-opacity:1"
       id="path2423"
       sodipodi:cx="92"
       sodipodi:cy="150"
       sodipodi:rx="2"
       sodipodi:ry="2"
       d="M 94,150 A 2,2 0 1 1 90,150 A 2,2 0 1 1 94,150 z" />
    <path
       sodipodi:type="arc"
       style="fill:#ffff00;fill-opacity:1;stroke:none;stroke-width:7.08661413000000007;stroke-miterlimit:4;stroke-dasharray:none;stroke-opacity:1"
       id="path2425"
       sodipodi:cx="110"
       sodipodi:cy="156"
       sodipodi:rx="2"
       sodipodi:ry="2"
       d="M 112,156 A 2,2 0 1 1 108,156 A 2,2 0 1 1 112,156 z"
       transform="translate(-2,2)" />
    <path
       sodipodi:type="arc"
       style="fill:#ff0000;fill-opacity:1;stroke:none;stroke-width:7.08661413000000007;stroke-miterlimit:4;stroke-dasharray:none;stroke-opacity:1"
       id="path2427"
       sodipodi:cx="124"
       sodipodi:cy="166"
       sodipodi:rx="2"
       sodipodi:ry="2"
       d="M 126,166 A 2,2 0 1 1 122,166 A 2,2 0 1 1 126,166 z" />
    <path
       style="fill:#cfcfcf;fill-rule:evenodd;stroke:none;stroke-width:1px;stroke-linecap:butt;stroke-linejoin:miter;stroke-opacity:1;fill-opacity:1"
       d="M 92,96 L 84,80 L 128,58 L 136,74 L 92,96 z"
       id="path3205" />
    <path
       style="fill:#ffffff;fill-rule:evenodd;stroke:none;stroke-width:1px;stroke-linecap:butt;stroke-linejoin:miter;stroke-opacity:1;fill-opacity:1"
       d="M 130,56 L 134,54 L 136,58 L 132,60 L 130,56 z"
       id="path3207" />
    <path
       style="fill:none;fill-rule:evenodd;stroke:#fe0000;stroke-width:3;stroke-linecap:butt;stroke-linejoin:round;stroke-opacity:1;stroke-miterlimit:4;stroke-dasharray:none"
       d="M 140,56 C 140,56 140,54 144,52 C 148,50 150,52 150,52 C 150,52 156,54 144,70 L 156,64"
       id="path3209"
       sodipodi:nodetypes="csccc" />
    <path
       style="fill:none;fill-opacity:1;fill-rule:evenodd;stroke:#ffffff;stroke-width:4;stroke-linecap:butt;stroke-linejoin:miter;stroke-miterlimit:4;stroke-dasharray:none;stroke-opacity:1"
       d="M 86,64 L 122,46"
       id="path3211"
       sodipodi:nodetypes="cc" />
    <path
       style="fill:#fe0000;fill-rule:evenodd;stroke:#fe0000;stroke-width:1px;stroke-linecap:butt;stroke-linejoin:miter;stroke-opacity:1;fill-opacity:1"
       d="M 98.089286,37.071429 C 98.089286,37.071429 90.089286,37.071429 90.089286,45.071429 C 90.089286,53.071429 98.089286,53.071429 98.089286,53.071429 C 98.089286,53.071429 106.08929,53.071429 106.08929,45.071429 C 106.08929,37.071429 98.214286,37.25 98.089286,37.071429 z"
       id="path3213" />
    <path
       style="fill:#ffffff;fill-rule:evenodd;stroke:#fefefe;stroke-width:1px;stroke-linecap:butt;stroke-linejoin:round;stroke-opacity:1;fill-opacity:1"
       d="M 94,50 L 96,52 L 96,48 L 94,46 L 94,50 z"
       id="path3217" />
    <path
       style="fill:#ffffff;fill-rule:evenodd;stroke:#ffffff;stroke-width:1px;stroke-linecap:butt;stroke-linejoin:round;stroke-opacity:1;fill-opacity:1"
       d="M 94,44 L 94,40 L 100,46 L 100,50 L 94,44 z"
       id="path3219"
       sodipodi:nodetypes="ccccc" />
    <path
       style="fill:#ffffff;fill-rule:evenodd;stroke:#ffffff;stroke-width:1px;stroke-linecap:butt;stroke-linejoin:round;stroke-opacity:1;fill-opacity:1"
       d="M 98,42 L 104,48 L 104,44 L 98,38 L 98,42 z"
       id="path3221"
       sodipodi:nodetypes="ccccc" />
  </g>
</svg>
